<?xml version="1.0" encoding="UTF-8"?>
<svg width="360px" height="158px" viewBox="0 0 360 158" version="1.1" xmlns="http://www.w3.org/2000/svg" xmlns:xlink="http://www.w3.org/1999/xlink">
    <title>Casply text logo</title>
    <defs>
        <path d="M230.998822,60.0322023 C230.998822,60.0322023 234.433135,67.6577462 231.465154,80.5429337 C230.327896,85.4802237 228.43811,89.4290137 225.79361,92.5481808 C224.078042,94.5716801 221.916609,96.3874156 219.309311,97.9953875 C212.289585,100.712375 207.514252,98.8966395 204.983312,92.5481808 C201.186903,83.0254927 209.12485,72.3928799 216.14195,63.5128755 C217.404163,61.915569 221.429517,58.832792 222.816346,57.9535552 C225.259027,56.4049184 226.75346,55.6654012 228.286279,56.1445869 C229.373089,56.4843425 229.719948,57.1597404 230.114337,57.9535552 C230.603574,58.9382793 230.998822,60.0322023 230.998822,60.0322023 Z M317.197287,135.157113 C315.855628,138.328146 314.537823,140.837274 313.243874,142.684495 C310.197618,147.033282 306.834341,148.719264 304.602932,149.181835 C301.179975,149.891413 296.624939,150.276981 293.091235,146.853383 C292.344333,146.129753 291.562706,144.87245 291.330199,144.03648 C290.77928,142.05568 291.016258,139.987135 291.330199,138.130674 C293.329301,126.309148 318.725893,114.932873 321.075536,115.000298 C322.295083,115.035294 322.259289,115.883775 322.016772,117.906688 C321.953235,118.43667 321.461061,122.14508 319.964482,127.388088 C319.511841,128.973838 318.589443,131.563513 317.197287,135.157113 Z M107.354294,56.8141387 C109.201715,56.130242 110.649043,55.6495251 111.696275,55.3719882 C113.679237,54.874524 116.271885,54.1847579 115.834308,58.4576828 C115.481753,61.9003715 114.374273,66.9471163 112.511867,73.5979172 C107.11819,87.9992066 102.069965,96.7832908 97.3671936,99.9501698 C92.6644217,103.117049 88.934382,103.366323 86.1770745,100.697993 C84.8672839,99.1371241 84.1548742,97.3448545 84.0398455,95.3211839 C83.7077931,89.4794742 85.4370573,79.8052749 89.7554978,72.8814631 C94.2731127,65.6383124 98.7549283,61.5258475 102.675075,59.1187711 C103.857988,58.3924303 105.417728,57.6242195 107.354294,56.8141387 Z M197.124708,112.200221 C197.23375,128.970424 194.82551,139.109547 189.899987,142.61759 C189.354302,143.006236 188.92418,143.272058 187.588337,143.777858 C185.96212,144.393603 184.274168,143.936628 183.403599,142.046289 C183.045124,141.267901 182.925446,139.670143 183.044566,137.253016 C183.378925,135.246757 183.648359,133.818867 183.852867,132.969347 C184.277408,131.205808 184.825645,129.735579 185.208823,128.563644 C185.868873,126.544905 187.035573,123.426849 188.708923,119.209477 C190.474828,115.137532 192.047763,111.494742 193.427727,108.281107 C194.807691,105.067472 195.787259,103.663086 196.36643,104.067948 C196.609185,104.151804 196.76504,104.326447 196.833995,104.591878 C197.091028,105.581288 197.124708,107.137845 197.124708,107.72523 C197.124708,108.548983 197.124708,110.040647 197.124708,112.200221 Z M285.460885,13.4912662 C285.01239,18.0105459 284.645059,21.2283881 284.358892,23.1447927 C283.820671,26.7491628 282.819893,31.418508 281.63048,35.4155877 C278.905338,44.5735613 274.548786,54.084473 267.924093,66.8554515 C266.759956,69.0996546 265.941076,70.1246589 265.082527,71.5538138 C261.188182,78.0364068 262.745467,65.4221326 269.840391,39.7697265 C271.474968,33.859753 274.299982,25.2734835 278.315434,14.0109181 C280.992291,7.08394196 283.006778,4.15070412 284.358892,5.21120462 C285.139869,5.82374567 285.33699,7.1874539 285.460885,8.93397375 C285.521288,9.78547593 285.521288,11.3045734 285.460885,13.4912662 Z M90.2379271,61.5272194 C84.7830446,67.1463214 81.366874,72.9049236 79.4227686,79.0249509 C78.894184,80.6889307 78.2988407,83.2635475 77.6367386,86.7488012 C77.2856748,88.9354776 77.0886105,90.5262274 77.0455458,91.5210504 C76.7260748,98.9010369 78.1009685,103.538918 80.7380598,105.341714 C83.9083715,107.509037 88.0457636,108.142607 93.150236,107.242425 C98.5085301,105.146429 103.245305,100.826541 107.360562,94.2827618 C111.475818,87.7389827 113.968288,83.6338103 114.837972,81.9672445 L114.837972,93.0483325 C114.778944,101.064376 119.055544,104.662889 127.667773,103.843871 C136.280002,103.024853 142.969139,95.7326445 147.735182,81.9672445 C156.678107,69.2776442 161.593689,62.4643024 162.481928,61.5272194 C163.814286,60.1215947 164.160944,59.9125636 164.257203,60.4239652 C164.353462,60.9353669 164.865288,62.8847146 164.974692,64.9792986 C165.084097,67.0738827 166.847017,81.3230982 165.084097,94.2827618 C163.908817,102.922538 158.486256,102.511061 148.816414,93.0483325 C147.352666,93.5089364 146.620984,93.9204129 146.621366,94.2827618 C146.621674,94.5746663 146.135902,94.4053844 146.135713,96.0451505 C146.135683,96.3089641 146.297567,97.1223058 146.621366,98.4851757 C148.782262,102.699064 152.288245,105.144224 157.139315,105.820655 C160.313329,106.263239 167.549477,104.431083 172.55151,102.418557 C179.016919,99.8172539 183.518105,96.671772 183.936155,96.3447599 C184.677632,95.7647513 190.421993,91.2367795 195.866692,82.8263292 C201.311391,74.415879 196.741998,92.2535577 196.304345,93.7950476 C195.866692,95.3365375 192.788619,102.054349 191.149417,104.467832 C189.510215,106.881315 175.231207,137.06141 179.563156,143.680753 C183.895104,150.300096 192.066294,148.62352 193.805674,148.197151 C194.483227,148.031064 195.800219,147.543323 197.164663,146.452881 C197.842848,145.910887 199.254554,144.181328 199.976155,143.075643 C201.52973,140.695153 202.692903,137.747305 204.010596,130.539725 C207.171691,113.24901 204.011965,99.5104041 203.474884,98.4851757 C203.116831,97.8016901 204.448844,98.6766042 207.470923,101.109918 C212.130857,103.653054 219.110479,103.653054 228.40979,101.109918 C233.163696,99.8098395 235.900694,98.3424558 238.274343,97.153678 C242.865481,94.8543306 244.364856,93.8410479 250.497772,87.9169278 C251.455444,86.9918601 252.022944,87.1327307 252.200274,88.3395397 C254.457134,94.4917737 257.218533,98.863528 260.484471,101.454802 C265.383378,105.341714 273.464782,107.825746 280.912402,104.467832 C288.360022,101.109918 293.314137,94.5088092 293.957549,93.9299837 C294.600962,93.3511582 295.110279,92.6670451 295.297685,92.9139123 C295.485091,93.1607794 293.023638,109.077506 299.68498,110.095792 C301.221595,110.330686 302.099888,110.263227 303.193467,110.095792 C307.059732,109.503837 308.822015,108.36182 308.891517,108.10796 C308.980677,107.782294 321.026724,97.4131268 323.417495,93.7950476 C325.011343,91.3829948 325.808266,90.4828476 325.808266,91.0946059 C326.378516,93.4093482 326.178597,97.0998762 325.208509,102.16619 C324.238421,107.232504 322.311001,110.179553 319.426251,111.007339 C318.083022,111.723228 315.21853,113.086832 310.832776,115.098154 C304.254145,118.115136 294.735805,123.829305 290.454113,129.745462 C287.599651,133.689566 286.493329,138.13296 287.135146,143.075643 C287.679297,147.888601 290.400144,151.453012 295.297685,153.768878 C302.643998,157.242676 310.317356,156.301493 315.338705,153.768878 C318.686272,152.080467 321.379202,149.545192 323.417495,146.163052 C326.410903,141.788389 328.463503,133.970991 329.575294,122.710857 C330.12383,117.155328 329.534146,113.816745 330.290566,111.663967 C330.403667,111.342082 331.862805,110.261538 332.2916,109.972402 C332.720395,109.683267 333.4163,109.230352 333.909815,108.794007 C334.40333,108.357662 334.165615,108.664196 335.861658,107.242425 C336.992354,106.294579 338.807471,104.696464 341.307011,102.448083 C347.512621,96.8093429 353.427431,90.1933553 359.051441,82.6001199 C359.542396,81.9372586 359.268285,79.53483 359.268285,79.0249509 C359.268285,78.5150718 358.96132,77.1302153 358.868648,77.1318001 C358.499966,77.1381047 356.660311,79.819425 355.534216,81.0808204 C354.783486,81.9217507 353.222038,83.8110777 350.84987,86.7488012 C348.802288,89.5803447 345.621335,93.0486369 341.307011,97.153678 C338.825964,99.5143719 333.243229,104.758594 331.720096,103.843871 C330.969788,103.39327 331.299381,100.316114 332.708875,94.6124029 C335.932192,82.3931426 337.813122,75.5052458 338.351665,73.9487124 C338.387068,73.8463891 339.021685,71.6871359 339.05272,71.6035823 C339.126586,71.4047186 339.69816,69.8735142 339.716916,69.8097644 C341.858896,62.5293822 342.24698,59.3388395 342.302532,59.0685109 C342.358084,58.7981823 342.816587,56.5416621 342.751254,55.7005528 C342.685921,54.8594435 341.182096,50.6503761 338.351665,54.8594435 C335.521235,59.0685109 336.485047,64.1237734 332.2916,73.9487124 C328.098152,83.7736514 321.825237,92.1240439 311.758137,101.109918 C303.058436,108.875254 304.740891,96.9788027 305.401307,90.0139 C305.505109,88.9191723 311.519301,60.507199 311.758137,59.0685109 C311.893994,58.2501435 312.223575,56.6409829 312.230918,55.443721 C312.236485,54.536199 311.979361,53.9438674 311.758137,53.6605693 C311.523226,53.3597438 310.090018,52.6781847 308.891517,52.4478071 C307.472332,52.1750091 305.64583,52.3439399 304.145706,52.9839654 C303.567025,53.2308591 302.813045,53.7739316 302.327932,54.8594435 C302.140528,55.2787878 301.842163,56.2538877 301.432836,57.7847434 C299.503109,64.6509111 298.094023,71.459919 297.205577,78.2117673 C296.745999,81.7043782 296.395958,84.8230931 295.297685,87.3900302 C294.931625,88.2456029 294.165602,89.3174811 293.361707,90.3454535 C292.897313,90.939293 291.928115,92.0891577 290.454113,93.7950476 C288.738574,95.6660467 286.805619,97.3197492 284.655248,98.7561553 C282.504877,100.192561 280.459417,100.977149 278.518867,101.109918 C271.73355,102.018559 267.031488,100.937888 264.412681,97.8679047 C260.484471,93.2629291 262.923844,81.3110773 267.296317,74.7645884 C268.696079,72.668857 270.410769,69.6494702 271.980513,66.8522928 C273.579816,64.0024454 276.223637,58.424652 279.911978,50.1189124 C283.543745,41.4476623 285.812001,34.0281655 286.716748,27.8604219 C288.073868,18.6088064 288.644258,13.5605858 288.017729,4.91417784 C287.681703,0.276849362 283.440651,-1.03085447 277.937523,0.789808188 C277.045959,1.08477456 275.996528,1.68437464 274.789231,2.58860844 C271.44931,4.66556158 268.306039,8.59562847 265.359418,14.3788091 C260.939487,23.0535801 258.770598,31.2471582 256.772084,38.0143716 C254.773569,44.7815849 253.929525,47.7477666 252.200274,58.2291621 C250.471023,68.7105575 250.906254,75.5176746 250.702013,79.8353038 C250.64798,80.9775444 250.796558,81.9947868 250.497772,82.8263292 C250.195006,83.6689459 249.349798,84.5638465 247.962148,85.5110311 C246.122847,87.0795396 244.844034,88.1410977 244.125712,88.6957056 C241.922213,90.397 240.566673,91.2125085 240.089365,91.5210504 C239.023308,92.2101733 238.035885,92.9139123 237.288276,93.2932482 C236.540666,93.6725841 234.767686,94.6124029 233.130066,95.2344502 C231.492446,95.8564975 231.014067,95.743132 230.409371,95.6581345 C229.686852,95.5565756 230.451401,95.1259262 232.370329,93.5373655 C232.932985,93.071578 233.977004,92.0909359 235.502385,90.595439 C237.317878,88.3416009 238.846871,85.7518976 240.089365,82.8263292 C241.953107,78.4379766 243.640216,74.7516784 243.540456,64.2061238 C243.440697,53.6605693 237.060785,51.4928546 237.07839,51.4928546 C237.091024,51.4928546 235.579389,50.5568288 232.095665,50.694855 C230.725236,50.7491518 229.05527,50.9984903 227.044347,51.4928546 C219.92152,53.2439268 214.746077,59.2868343 214.729888,59.3044953 C214.713699,59.3221563 211.687096,62.319777 209.22508,66.3497757 C207.583736,69.0364414 206.667249,70.4994769 206.47562,70.738882 C204.988384,71.9995325 204.166709,71.5609502 204.010596,69.423135 C203.854482,67.2853198 203.774878,65.5463161 203.771783,64.2061238 C203.813823,60.0194279 203.2435,56.2787084 202.060814,52.9839654 C201.180504,50.5315831 200.289483,50.328992 199.627441,50.3750318 C198.955315,50.4217728 198.351029,51.0409134 197.997078,51.7921033 C197.294486,53.283214 197.817977,62.6517139 197.769523,64.3843065 C197.73722,65.5393682 197.813072,68.7275035 197.997078,73.9487124 C198.070778,74.230423 198.153176,74.4159561 198.244275,74.5053116 C198.383547,74.6419202 198.530966,74.8370635 198.653875,75.0441837 C198.828919,75.3391588 198.711907,76.0301075 198.409013,76.7548561 C198.330042,76.9438155 198.19273,77.1997589 197.997078,77.5226863 C197.782178,77.7409654 197.596424,77.8682911 197.439816,77.9046636 C196.551505,78.1109753 196.328704,77.8231766 195.866692,78.0174719 C195.40468,78.2117673 193.233789,80.2313736 189.460783,85.1226368 C185.687777,90.0139 183.894946,91.7127451 176.24995,95.2344502 C173.845704,96.3419781 173.58807,96.412249 173.357003,96.0451505 C172.853326,95.2449532 174.984075,92.665445 176.022305,88.3395397 C177.060535,84.0136343 177.565739,80.8959676 177.57417,74.7645884 C177.582601,68.6332092 176.315883,63.1154303 176.022305,62.0996274 C175.728727,61.0838246 175.381695,59.8742705 173.357003,56.3069882 C173.156278,55.9533328 171.943383,53.9078988 171.758179,53.6605693 C170.119842,51.4726624 171.312191,52.9491019 169.265125,50.3750318 C168.160081,48.9855006 165.305766,51.8038165 160.192542,58.5537606 C158.915635,60.2394006 156.634126,63.2928797 153.348014,67.7141977 C151.928752,69.7362488 150.783445,71.345334 149.912092,72.5414533 C148.886868,73.9487937 147.909321,75.426475 146.621366,77.1318001 C145.333411,78.8371252 143.595679,81.1254467 143.34782,81.4958295 C142.520096,82.7327176 141.591165,84.0329351 141.058554,84.8781291 C139.356443,87.5791862 139.190515,87.8561088 139.190515,88.1565552 C139.190515,88.4382964 139.298042,88.7028144 139.513097,88.950109 C139.932863,89.1554955 140.205475,89.2647089 140.330933,89.2777493 C140.45639,89.2907897 140.261515,89.8041434 139.746307,90.8178103 C137.386105,93.8439575 134.495519,96.3158456 131.074547,98.2334745 C125.943091,101.109918 121.833844,98.8125892 121.321221,93.2932482 C120.808598,87.7739072 121.146525,85.7816004 121.830135,78.6925914 C122.513744,71.6035823 122.353887,77.1687185 123.570186,62.0996274 C123.942452,57.4875115 123.428973,52.98579 121.830135,50.694855 C120.785289,49.1977225 118.850538,49.2370154 117.874001,48.7543997 C117.089956,48.3669157 101.7573,49.661055 90.2379271,61.5272194 Z" id="path-1"></path>
    </defs>
    <g id="Page-1" stroke="none" stroke-width="1" fill="none" fill-rule="evenodd">
        <g id="Group">
            <path d="" id="Path" stroke="#979797"></path>
            <path d="M75.663199,28.2115896 C76.4873604,26.6159185 76.8185031,25.1041354 76.6566271,23.6762402 C76.4947511,22.248345 75.9538389,20.4279453 75.0338906,18.2150413 C74.0077931,15.9895668 73.2061382,14.5228059 72.6289258,13.8147587 C71.7631072,12.7526879 70.5603801,10.3835647 66.0127159,6.92490794 C61.4650518,3.46625122 56.2539918,0.962341609 49.7880585,1.00428571 C45.2138214,1.07869058 40.9798699,1.79116869 33.7539186,4.58323923 C25.3535541,7.82909697 18.7091196,16.0143228 15.1946657,20.8605981 C11.6802118,25.7068734 7.17795505,33.2017841 4.52431723,43.5969946 C3.02956617,49.4524478 1.9586904,58.4164596 2.00122344,65.3682656 C2.03419949,70.75803 2.39765016,74.7667047 2.51024501,75.9156764 C2.76806655,78.5466105 3.91747459,83.1395075 5.96657862,87.6733185 C6.79415852,89.504407 7.80733376,91.4363127 9.1147732,93.2497341 C9.76826777,94.1561326 10.4611787,94.9683417 11.3093374,95.8526764 C12.9658391,97.5798318 15.1070033,99.5513099 18.081355,101.322873 C21.7924245,103.533236 23.7414698,104.116927 26.0769202,104.831643 C28.4891647,105.56986 31.0974398,106.028941 34.8233693,106.321969 C37.9302101,106.566309 41.5621442,106.685538 44.8414051,106.321969 C49.3023602,105.827387 53.1189947,104.713012 54.1504403,104.341739 C55.9401045,103.697543 59.2441504,102.730492 63.4793015,99.5397102 C67.7144526,96.3489282 69.939414,93.7074969 71.5440645,88.7261539 C73.1487149,83.7448109 70.4935379,78.8038727 69.3217967,78.3301737 C68.5406359,78.0143744 67.437609,78.0143744 66.0127159,78.3301737 C66.0756443,78.8111841 66.6428898,79.8483706 67.7144526,81.4417334 C68.746344,82.9761067 68.6163064,85.1305317 68.2742284,86.7611293 C68.0834625,87.6704614 66.9552259,90.520553 65.1521904,92.4327213 C63.349155,94.3448897 60.2861137,96.5778114 58.9663852,97.3782838 C55.1391808,99.6996487 53.9730369,100 51.9052612,100.615713 C49.3217831,101.384985 47.3616642,102.129351 44.8414051,102.134898 C43.0019664,102.138947 39.6851569,102.250008 37.6265973,101.778296 C37.6265973,101.778296 36.1721921,101.618645 34.8233693,101.322873 C33.9001714,101.120434 30.8077707,100.266192 29.8480689,99.8664533 C28.1685383,99.1668889 25.277017,97.8305041 23.4843736,96.3507458 C22.6963939,95.7002987 21.8819574,95.012254 21.1481083,94.2174612 C20.321292,93.3219804 19.6007797,92.3314483 19.2119226,91.8768277 C3.74564684,73.7948928 20.0403918,32.0258551 19.744573,33.2596623 C19.4487542,34.4934695 21.2716892,28.2331021 26.0769202,21.7337758 C27.8593015,19.3230119 30.6015738,16.3196495 33.7539186,13.8147587 C35.6909681,12.275556 37.9754782,10.9607268 39.7173176,9.98027372 C41.7248729,8.85025343 42.7920017,8.49010954 43.8893434,8.15076582 C45.2935441,7.71652858 46.5427953,7.4653919 47.685729,7.2751508 C49.44218,6.98278984 51.9515336,7.15030983 53.4729877,7.2751508 C55.6955279,7.45751851 55.8236968,7.43113303 58.4387257,8.40062575 C59.4898981,8.79033614 61.8123417,9.98754277 62.8485811,10.7005499 C71.2554679,16.4850912 72.4628341,23.452032 73.0513093,25.8318108 C73.6397845,28.2115896 74.2205966,28.0393649 74.5784458,28.2115896 C74.817012,28.326406 75.1785964,28.326406 75.663199,28.2115896 Z" id="Path-2" stroke="#FFFFFF" fill="#FFFFFF"></path>
            <mask id="mask-2" fill="white">
                <use xlink:href="#path-1"></use>
            </mask>
            <use id="Path-3" stroke="#FFFFFF" fill="#FFFFFF" xlink:href="#path-1"></use>
        </g>
    </g>
</svg>